<?xml version="1.0" standalone="no"?>
<!DOCTYPE svg PUBLIC "-//W3C//DTD SVG 20010904//EN"
 "http://www.w3.org/TR/2001/REC-SVG-20010904/DTD/svg10.dtd">
<svg version="1.0" xmlns="http://www.w3.org/2000/svg"
 width="260.000000pt" height="260.000000pt" viewBox="0 0 260.000000 260.000000"
 preserveAspectRatio="xMidYMid meet">
<metadata>
Created by potrace 1.11, written by Peter Selinger 2001-2013
</metadata>
<g transform="translate(0.000000,260.000000) scale(0.100000,-0.100000)"
fill="#000000" stroke="none">
<path d="M600 2384 c-135 -24 -246 -44 -247 -44 -2 0 -3 -106 -3 -235 l0 -235
265 0 265 0 0 280 c0 260 -1 280 -17 279 -10 0 -128 -21 -263 -45z"/>
<path d="M910 2150 l0 -280 260 0 260 0 0 235 0 235 -22 5 c-26 5 -487 85
-494 85 -2 0 -4 -126 -4 -280z"/>
<path d="M1450 2100 l0 -230 213 2 212 3 3 193 c1 105 0 192 -4 192 -3 0 -93
16 -200 35 -106 19 -200 35 -209 35 -13 0 -15 -30 -15 -230z"/>
<path d="M1900 2060 l0 -190 175 0 175 0 0 160 c0 88 -1 160 -2 160 -2 0 -79
14 -173 30 -93 16 -171 30 -172 30 -2 0 -3 -85 -3 -190z"/>
<path d="M1900 1670 l0 -179 73 -4 72 -3 -72 -2 -73 -2 0 -490 0 -489 78 28
c42 15 121 43 175 60 l97 33 0 437 0 438 -97 -2 c-54 -1 -73 -1 -43 1 30 2 74
6 98 10 l42 5 0 170 0 169 -175 0 -175 0 0 -180z m78 -157 c-10 -2 -26 -2 -35
0 -10 3 -2 5 17 5 19 0 27 -2 18 -5z m-10 -60 c-10 -2 -26 -2 -35 0 -10 3 -2
5 17 5 19 0 27 -2 18 -5z"/>
<path d="M998 1723 l-48 -4 0 -105 0 -105 73 7 c39 3 80 11 89 16 23 11 34 56
19 80 -8 13 -8 24 -1 38 19 35 -28 85 -73 78 -7 -1 -33 -3 -59 -5z m62 -63 c0
-5 -7 -10 -15 -10 -8 0 -15 5 -15 10 0 6 7 10 15 10 8 0 15 -4 15 -10z m3 -75
c1 -5 -6 -11 -15 -13 -11 -2 -18 3 -18 13 0 17 30 18 33 0z"/>
<path d="M1170 1629 c-18 -55 -30 -102 -27 -105 9 -9 67 10 67 22 0 9 11 14
30 14 20 0 30 -5 30 -15 0 -17 55 -21 65 -5 3 5 -6 50 -21 100 l-27 90 -43 0
-43 0 -31 -101z m80 -4 c0 -8 -4 -15 -10 -15 -5 0 -10 7 -10 15 0 8 5 15 10
15 6 0 10 -7 10 -15z"/>
<path d="M1357 1723 c-4 -3 -7 -47 -7 -96 l0 -90 113 8 c61 4 127 7 145 6 21
-1 34 4 38 14 7 17 39 20 49 5 3 -5 18 -10 32 -10 29 0 29 8 -3 115 -15 52
-17 55 -48 55 -32 0 -33 -1 -58 -82 l-26 -83 -1 83 -1 82 -30 0 -30 0 0 -65
c0 -53 -3 -65 -16 -65 -13 0 -15 10 -13 63 l4 62 -30 0 c-30 0 -30 -1 -33 -60
-5 -89 -22 -94 -22 -7 l0 72 -28 0 c-16 0 -32 -3 -35 -7z m320 -85 c-3 -8 -6
-5 -6 6 -1 11 2 17 5 13 3 -3 4 -12 1 -19z"/>
<path d="M1375 1494 c-225 -18 -413 -33 -417 -33 -5 -1 -8 -8 -8 -16 0 -12 8
-15 33 -11 17 3 213 20 435 38 303 24 402 36 402 45 0 7 -8 12 -17 12 -10 -1
-202 -16 -428 -35z"/>
<path d="M1760 1463 c-14 -3 -33 -12 -42 -20 -19 -17 -24 -68 -8 -78 6 -4 4
-17 -5 -35 -20 -38 -19 -40 10 -40 16 0 29 9 39 28 14 25 15 26 16 5 0 -18 6
-23 25 -23 25 0 25 1 25 85 0 92 2 89 -60 78z m6 -70 c-10 -10 -19 5 -10 18 6
11 8 11 12 0 2 -7 1 -15 -2 -18z"/>
<path d="M1630 1425 c0 -14 -8 -29 -20 -35 -18 -10 -20 -8 -20 20 0 27 -3 30
-30 30 l-30 0 0 -90 c0 -49 3 -90 8 -90 33 1 51 15 54 43 4 42 28 48 28 8 0
-28 3 -31 30 -31 l30 0 0 85 c0 84 0 85 -25 85 -20 0 -25 -5 -25 -25z"/>
<path d="M1463 1430 c-13 -5 -23 -17 -23 -27 0 -16 -3 -15 -18 4 -15 19 -23
20 -81 15 -62 -7 -65 -8 -76 -41 l-11 -34 -13 31 c-11 27 -19 32 -47 32 -19 0
-34 -5 -34 -10 0 -6 13 -37 30 -70 29 -57 29 -59 10 -65 -13 -4 -20 -15 -20
-31 0 -26 13 -30 55 -14 25 10 37 30 90 157 l16 38 24 -39 24 -40 -26 -48
c-14 -26 -24 -50 -22 -52 12 -12 61 10 73 32 l13 26 12 -22 c12 -22 35 -28 65
-16 14 6 13 12 -9 50 l-25 43 20 38 c30 56 24 64 -27 43z"/>
<path d="M1055 1363 l-25 -38 0 33 c0 32 -1 33 -37 30 l-38 -3 -3 -103 -3
-103 38 3 c34 3 38 6 43 36 l5 32 20 -30 c11 -17 26 -28 33 -25 8 3 25 5 38 5
32 0 30 17 -6 60 -17 19 -30 38 -30 43 0 5 14 26 30 47 17 21 30 41 30 44 0 3
-16 6 -35 6 -28 0 -39 -6 -60 -37z"/>
<path d="M1671 1144 c-106 -18 -200 -35 -207 -38 -12 -4 -14 -72 -14 -376 0
-203 3 -370 8 -370 4 0 100 31 212 68 l205 69 3 333 c1 184 -1 337 -5 340 -5
4 -95 -8 -202 -26z"/>
<path d="M362 724 l3 -376 245 -84 c134 -46 253 -87 262 -90 17 -5 18 17 18
415 0 232 -3 421 -6 421 -8 0 -475 79 -502 85 l-22 5 2 -376z"/>
<path d="M1250 1069 c-85 -15 -197 -35 -247 -44 l-93 -17 0 -419 c0 -230 2
-419 4 -419 2 0 119 40 261 90 142 50 259 90 261 90 2 0 4 169 4 375 0 351 -1
375 -17 374 -10 -1 -88 -14 -173 -30z"/>
</g>
</svg>
