<svg width="75" height="75" viewBox="0 0 75 75" fill="none" xmlns="http://www.w3.org/2000/svg">
<path d="M66.7969 14.0625H60.9375V5.85938C60.9375 4.92697 60.5671 4.03276 59.9078 3.37345C59.2485 2.71415 58.3543 2.34375 57.4219 2.34375H26.9531C26.6423 2.34382 26.3443 2.46732 26.1246 2.68711L7.37461 21.4371C7.15483 21.6568 7.03132 21.9548 7.03125 22.2656V64.4531C7.03125 65.3855 7.40165 66.2797 8.06095 66.939C8.72026 67.5984 9.61447 67.9688 10.5469 67.9688H37.9477L39.9609 72.0082C40.0581 72.2032 40.2078 72.3673 40.393 72.4819C40.5783 72.5966 40.7919 72.6573 41.0098 72.6573C41.2276 72.6573 41.4412 72.5966 41.6265 72.4819C41.8118 72.3673 41.9614 72.2032 42.0586 72.0082L44.0836 67.9688H51.5625V71.4844C51.5625 71.7952 51.686 72.0932 51.9057 72.313C52.1255 72.5328 52.4236 72.6562 52.7344 72.6562H66.7969C67.1077 72.6562 67.4057 72.5328 67.6255 72.313C67.8453 72.0932 67.9688 71.7952 67.9688 71.4844V15.2344C67.9688 14.9236 67.8453 14.6255 67.6255 14.4057C67.4057 14.186 67.1077 14.0625 66.7969 14.0625ZM25.7812 6.34453V19.9219C25.7812 20.2327 25.6578 20.5307 25.438 20.7505C25.2182 20.9703 24.9202 21.0938 24.6094 21.0938H11.032L25.7812 6.34453ZM41.0156 68.8641L39.6352 66.1031C40.0426 65.827 40.5235 65.6795 41.0156 65.6795C41.5078 65.6795 41.9887 65.827 42.3961 66.1031L41.0156 68.8641ZM43.4508 63.9938C42.7238 63.5285 41.8787 63.2812 41.0156 63.2812C40.1525 63.2812 39.3075 63.5285 38.5805 63.9938L37.7602 62.3402L41.0156 59.0789L44.277 62.3438L43.4508 63.9938ZM37.5 59.2805V32.8125H39.8438V56.9367L37.5 59.2805ZM44.5312 59.2805L42.1875 56.9367V32.8125H44.5312V59.2805ZM44.5312 30.4688H37.5V28.125H44.5312V30.4688ZM44.5312 25.7812H37.5V24.6094C37.5 23.677 37.8704 22.7828 38.5297 22.1235C39.189 21.4641 40.0832 21.0938 41.0156 21.0938C41.948 21.0938 42.8422 21.4641 43.5015 22.1235C44.1609 22.7828 44.5312 23.677 44.5312 24.6094V25.7812ZM51.5625 15.2344V65.625H45.2555L46.7578 62.6332C46.8369 62.47 46.877 62.2907 46.875 62.1094V24.6094C46.875 23.0554 46.2577 21.565 45.1588 20.4662C44.06 19.3673 42.5696 18.75 41.0156 18.75C39.4616 18.75 37.9713 19.3673 36.8724 20.4662C35.7736 21.565 35.1562 23.0554 35.1562 24.6094V62.1094C35.1561 62.2912 35.1982 62.4705 35.2793 62.6332L36.7758 65.625H10.5469C10.2361 65.625 9.938 65.5015 9.71823 65.2818C9.49847 65.062 9.375 64.7639 9.375 64.4531V23.4375H24.6094C25.5418 23.4375 26.436 23.0671 27.0953 22.4078C27.7546 21.7485 28.125 20.8543 28.125 19.9219V4.6875H57.4219C57.7327 4.6875 58.0307 4.81097 58.2505 5.03073C58.4703 5.2505 58.5938 5.54857 58.5938 5.85938V14.0625H52.7344C52.4236 14.0625 52.1255 14.186 51.9057 14.4057C51.686 14.6255 51.5625 14.9236 51.5625 15.2344ZM62.1094 30.4688H65.625V35.1562H62.1094C61.7986 35.1562 61.5005 35.2797 61.2807 35.4995C61.061 35.7193 60.9375 36.0173 60.9375 36.3281C60.9375 36.6389 61.061 36.937 61.2807 37.1568C61.5005 37.3765 61.7986 37.5 62.1094 37.5H65.625V42.1875H62.1094C61.7986 42.1875 61.5005 42.311 61.2807 42.5307C61.061 42.7505 60.9375 43.0486 60.9375 43.3594C60.9375 43.6702 61.061 43.9682 61.2807 44.188C61.5005 44.4078 61.7986 44.5312 62.1094 44.5312H65.625V49.2188H62.1094C61.7986 49.2188 61.5005 49.3422 61.2807 49.562C61.061 49.7818 60.9375 50.0798 60.9375 50.3906C60.9375 50.7014 61.061 50.9995 61.2807 51.2193C61.5005 51.439 61.7986 51.5625 62.1094 51.5625H65.625V56.25H62.1094C61.7986 56.25 61.5005 56.3735 61.2807 56.5932C61.061 56.813 60.9375 57.1111 60.9375 57.4219C60.9375 57.7327 61.061 58.0307 61.2807 58.2505C61.5005 58.4703 61.7986 58.5938 62.1094 58.5938H65.625V63.2812H62.1094C61.7986 63.2812 61.5005 63.4047 61.2807 63.6245C61.061 63.8443 60.9375 64.1423 60.9375 64.4531C60.9375 64.7639 61.061 65.062 61.2807 65.2818C61.5005 65.5015 61.7986 65.625 62.1094 65.625H65.625V70.3125H53.9062V16.4062H65.625V21.0938H62.1094C61.7986 21.0938 61.5005 21.2172 61.2807 21.437C61.061 21.6568 60.9375 21.9548 60.9375 22.2656C60.9375 22.5764 61.061 22.8745 61.2807 23.0943C61.5005 23.314 61.7986 23.4375 62.1094 23.4375H65.625V28.125H62.1094C61.7986 28.125 61.5005 28.2485 61.2807 28.4682C61.061 28.688 60.9375 28.9861 60.9375 29.2969C60.9375 29.6077 61.061 29.9057 61.2807 30.1255C61.5005 30.3453 61.7986 30.4688 62.1094 30.4688Z" fill="#716CE3"/>
</svg>
