<svg width="75" height="75" viewBox="0 0 75 75" fill="none" xmlns="http://www.w3.org/2000/svg">
<path d="M71.4842 5.85938H9.44751L6.32798 2.73868C6.10825 2.51879 5.81016 2.39519 5.49929 2.39508C5.18843 2.39497 4.89026 2.51836 4.67037 2.73809C4.45047 2.95783 4.32688 3.25591 4.32677 3.56678C4.32666 3.87764 4.45004 4.17582 4.66978 4.39571L29.0202 28.7449L10.7893 46.9758L4.01822 40.2047C3.7972 39.9912 3.50118 39.8731 3.19392 39.8758C2.88666 39.8784 2.59274 40.0017 2.37546 40.219C2.15819 40.4362 2.03494 40.7302 2.03227 41.0374C2.0296 41.3447 2.14772 41.6407 2.36119 41.8617L7.03111 46.5316V65.625C7.03111 65.9358 7.15457 66.2339 7.37434 66.4537C7.59411 66.6734 7.89218 66.7969 8.20298 66.7969H28.9534L33.1639 71.0074C33.4813 71.3287 33.8589 71.5844 34.2751 71.7597C34.6914 71.935 35.1381 72.0266 35.5897 72.0293H35.6811C36.1386 72.0305 36.5919 71.9406 37.0143 71.765C37.4368 71.5894 37.8202 71.3315 38.142 71.0063C38.4554 70.6936 38.7063 70.3241 38.8815 69.9176C39.409 70.2174 40.0056 70.3742 40.6124 70.3723C41.3002 70.3783 41.9745 70.1814 42.5511 69.8063C43.1276 69.4311 43.5807 68.8942 43.8538 68.2629C44.3796 68.5645 44.9761 68.721 45.5823 68.7164C46.517 68.7105 47.4136 68.3445 48.0854 67.6945C48.3704 67.4096 48.6043 67.0778 48.7768 66.7137C49.3954 67.2331 50.1734 67.5247 50.981 67.5398C51.7887 67.555 52.577 67.2927 53.2147 66.7969H71.4842C71.795 66.7969 72.0931 66.6734 72.3129 66.4537C72.5326 66.2339 72.6561 65.9358 72.6561 65.625V7.03126C72.6561 6.72045 72.5326 6.42238 72.3129 6.20261C72.0931 5.98285 71.795 5.85938 71.4842 5.85938ZM44.5311 8.20313V19.9219H35.1561V8.20313H44.5311ZM9.37486 64.4531V48.8754L9.96079 49.4613C10.1806 49.681 10.4786 49.8044 10.7893 49.8044C11.1 49.8044 11.3981 49.681 11.6178 49.4613L13.2749 47.8043L13.5831 48.1125C14.3174 48.8492 14.843 49.7676 15.1065 50.7738L15.3127 51.5695C15.6818 52.9798 16.4196 54.2664 17.4502 55.2973L26.6096 64.4531H9.37486ZM51.0315 65.1984C50.7288 65.192 50.4395 65.0724 50.2206 64.8633L48.0784 62.7199C47.8586 62.5 47.5605 62.3764 47.2497 62.3763C46.9388 62.3762 46.6406 62.4996 46.4208 62.7193C46.2009 62.9391 46.0773 63.2372 46.0772 63.548C46.077 63.8589 46.2004 64.1571 46.4202 64.377C46.6399 64.5967 46.7633 64.8947 46.7633 65.2055C46.7633 65.5162 46.6399 65.8142 46.4202 66.034C46.3104 66.1459 46.1784 66.2337 46.0327 66.2916C45.887 66.3495 45.7308 66.3763 45.5741 66.3703C45.2706 66.3659 44.9802 66.246 44.762 66.0352L43.1049 64.3781C42.8829 64.1699 42.5886 64.0563 42.2843 64.0612C41.98 64.0662 41.6895 64.1893 41.4744 64.4046C41.2593 64.6199 41.1363 64.9104 41.1316 65.2148C41.1269 65.5191 41.2407 65.8133 41.4491 66.0352C41.6677 66.2548 41.7904 66.552 41.7904 66.8619C41.7904 67.1718 41.6677 67.4691 41.4491 67.6887C41.2213 67.9047 40.9193 68.0251 40.6053 68.025C40.4531 68.0342 40.3009 68.0087 40.16 67.9504C40.0191 67.8922 39.8933 67.8027 39.792 67.6887L38.135 66.0352C38.0262 65.9263 37.897 65.8399 37.7548 65.7809C37.6127 65.722 37.4602 65.6916 37.3063 65.6916C37.1524 65.6915 37 65.7218 36.8577 65.7806C36.7155 65.8395 36.5863 65.9258 36.4774 66.0346C36.3685 66.1434 36.2821 66.2726 36.2232 66.4147C36.1642 66.5569 36.1339 66.7093 36.1338 66.8633C36.1337 67.0172 36.164 67.1696 36.2229 67.3118C36.2817 67.4541 36.368 67.5833 36.4768 67.6922C36.6965 67.9119 36.8199 68.21 36.8199 68.5207C36.8199 68.8315 36.6965 69.1295 36.4768 69.3492C36.369 69.4631 36.2376 69.5522 36.0919 69.6102C35.9463 69.6683 35.7897 69.694 35.6331 69.6856C35.3282 69.685 35.036 69.5641 34.8198 69.3492L19.1167 53.6391C18.3816 52.9029 17.8558 51.9844 17.5932 50.9777L17.3858 50.182C17.0166 48.7724 16.2793 47.4863 15.2495 46.4555L14.9413 46.1473L27.362 33.7172L28.5432 34.8973C29.0099 35.3631 29.5984 35.688 30.2413 35.8348L36.1006 37.1801C40.135 38.1119 43.712 40.4355 46.2034 43.7426L52.1917 51.6949L52.0827 51.8039C51.8659 52.0224 51.6079 52.1956 51.3237 52.3135C51.0394 52.4313 50.7345 52.4916 50.4268 52.4906C50.1189 52.491 49.8139 52.4304 49.5295 52.3123C49.2451 52.1943 48.9869 52.0211 48.7698 51.8027L45.8401 48.8731C45.5736 48.6041 45.2564 48.3907 44.9067 48.2455C44.557 48.1002 44.182 48.0259 43.8034 48.027C43.2223 48.0307 42.6552 48.206 42.1735 48.531C41.6917 48.856 41.3167 49.316 41.0956 49.8534C40.8745 50.3908 40.8171 50.9816 40.9306 51.5515C41.0442 52.1214 41.3236 52.645 41.7338 53.0566L51.792 63.1149C52.0186 63.3253 52.1605 63.6112 52.1912 63.9189C52.2218 64.2266 52.1391 64.5349 51.9585 64.7859C51.842 64.9164 51.6991 65.0207 51.5393 65.0918C51.3795 65.1629 51.2064 65.1992 51.0315 65.1984ZM70.3124 64.4531H54.5131C54.5682 63.9051 54.5007 63.3517 54.3154 62.833C54.1302 62.3144 53.8318 61.8434 53.442 61.4543L43.3838 51.3961C43.273 51.2846 43.2107 51.1338 43.2104 50.9766C43.2124 50.8913 43.2317 50.8072 43.2669 50.7295C43.3021 50.6518 43.3527 50.582 43.4155 50.5242C43.5163 50.4234 43.6531 50.3668 43.7958 50.3668C43.9384 50.3668 44.0752 50.4234 44.176 50.5242L47.1057 53.4539C47.5399 53.8906 48.0564 54.2369 48.6252 54.4728C49.194 54.7088 49.804 54.8296 50.4198 54.8285C51.0354 54.8302 51.6452 54.7097 52.2139 54.4739C52.7826 54.2382 53.2988 53.8919 53.7327 53.4551L54.5612 52.6266C54.7611 52.4268 54.8821 52.1616 54.9019 51.8797C54.9217 51.5979 54.839 51.3183 54.669 51.0926L48.0678 42.327C45.2441 38.5802 41.1903 35.9483 36.6186 34.8938L30.7592 33.5496C30.544 33.4999 30.347 33.3906 30.1909 33.2344L29.0096 32.0531L31.4963 29.5664C31.716 29.3467 31.8394 29.0486 31.8394 28.7379C31.8394 28.4272 31.716 28.1291 31.4963 27.9094L11.7913 8.20313H32.8124V21.0938C32.8124 21.4046 32.9358 21.7026 33.1556 21.9224C33.3754 22.1422 33.6734 22.2656 33.9842 22.2656H45.703C46.0138 22.2656 46.3119 22.1422 46.5316 21.9224C46.7514 21.7026 46.8749 21.4046 46.8749 21.0938V8.20313H70.3124V64.4531Z" fill="#716CE3"/>
<path d="M56.25 55.0781H62.1094C62.4202 55.0781 62.7182 54.9547 62.938 54.7349C63.1578 54.5151 63.2812 54.2171 63.2812 53.9062C63.2812 53.5954 63.1578 53.2974 62.938 53.0776C62.7182 52.8578 62.4202 52.7344 62.1094 52.7344H56.25C55.9392 52.7344 55.6411 52.8578 55.4214 53.0776C55.2016 53.2974 55.0781 53.5954 55.0781 53.9062C55.0781 54.2171 55.2016 54.5151 55.4214 54.7349C55.6411 54.9547 55.9392 55.0781 56.25 55.0781Z" fill="#716CE3"/>
<path d="M65.625 55.0781H66.7969C67.1077 55.0781 67.4057 54.9547 67.6255 54.7349C67.8453 54.5151 67.9688 54.2171 67.9688 53.9062C67.9688 53.5954 67.8453 53.2974 67.6255 53.0776C67.4057 52.8578 67.1077 52.7344 66.7969 52.7344H65.625C65.3142 52.7344 65.0161 52.8578 64.7964 53.0776C64.5766 53.2974 64.4531 53.5954 64.4531 53.9062C64.4531 54.2171 64.5766 54.5151 64.7964 54.7349C65.0161 54.9547 65.3142 55.0781 65.625 55.0781Z" fill="#716CE3"/>
<path d="M56.25 50.3906H62.1094C62.4202 50.3906 62.7182 50.2672 62.938 50.0474C63.1578 49.8276 63.2812 49.5296 63.2812 49.2188C63.2812 48.9079 63.1578 48.6099 62.938 48.3901C62.7182 48.1703 62.4202 48.0469 62.1094 48.0469H56.25C55.9392 48.0469 55.6411 48.1703 55.4214 48.3901C55.2016 48.6099 55.0781 48.9079 55.0781 49.2188C55.0781 49.5296 55.2016 49.8276 55.4214 50.0474C55.6411 50.2672 55.9392 50.3906 56.25 50.3906Z" fill="#716CE3"/>
<path d="M65.625 50.3906H66.7969C67.1077 50.3906 67.4057 50.2672 67.6255 50.0474C67.8453 49.8276 67.9688 49.5296 67.9688 49.2188C67.9688 48.9079 67.8453 48.6099 67.6255 48.3901C67.4057 48.1703 67.1077 48.0469 66.7969 48.0469H65.625C65.3142 48.0469 65.0161 48.1703 64.7964 48.3901C64.5766 48.6099 64.4531 48.9079 64.4531 49.2188C64.4531 49.5296 64.5766 49.8276 64.7964 50.0474C65.0161 50.2672 65.3142 50.3906 65.625 50.3906Z" fill="#716CE3"/>
<path d="M62.1094 57.4219H53.9062C53.5954 57.4219 53.2974 57.5453 53.0776 57.7651C52.8578 57.9849 52.7344 58.2829 52.7344 58.5938C52.7344 58.9046 52.8578 59.2026 53.0776 59.4224C53.2974 59.6422 53.5954 59.7656 53.9062 59.7656H62.1094C62.4202 59.7656 62.7182 59.6422 62.938 59.4224C63.1578 59.2026 63.2812 58.9046 63.2812 58.5938C63.2812 58.2829 63.1578 57.9849 62.938 57.7651C62.7182 57.5453 62.4202 57.4219 62.1094 57.4219Z" fill="#716CE3"/>
<path d="M65.625 59.7656H66.7969C67.1077 59.7656 67.4057 59.6422 67.6255 59.4224C67.8453 59.2026 67.9688 58.9046 67.9688 58.5938C67.9688 58.2829 67.8453 57.9849 67.6255 57.7651C67.4057 57.5453 67.1077 57.4219 66.7969 57.4219H65.625C65.3142 57.4219 65.0161 57.5453 64.7964 57.7651C64.5766 57.9849 64.4531 58.2829 64.4531 58.5938C64.4531 58.9046 64.5766 59.2026 64.7964 59.4224C65.0161 59.6422 65.3142 59.7656 65.625 59.7656Z" fill="#716CE3"/>
</svg>
