<svg width="75" height="75" viewBox="0 0 75 75" fill="none" xmlns="http://www.w3.org/2000/svg">
<path d="M71.8412 56.0329C71.1687 53.5498 68.6108 52.0812 66.1276 52.7526L59.7827 54.6945C60.6269 50.9019 58.6301 47.0498 55.044 45.5534C55.6249 43.787 55.3232 41.8497 54.2333 40.3437C53.144 38.8377 51.398 37.9455 49.5388 37.9449C49.4227 37.9449 49.3066 37.9449 49.1912 37.9551C48.2842 34.929 45.707 32.7023 42.5819 32.2437V30.59C42.5796 29.6672 42.9465 28.7811 43.601 28.1301L46.7318 24.9992C48.2598 26.234 50.1632 26.9094 52.1278 26.9145C55.0491 26.8155 57.8097 25.5552 59.798 23.4129C63.5397 19.6689 67.0901 5.60453 67.4819 4.01251C67.5787 3.61847 67.4626 3.20234 67.1756 2.91587C66.8891 2.62883 66.473 2.51277 66.0789 2.60958C64.4869 3.00136 50.4259 6.55171 46.6786 10.2934C42.6504 14.3227 42.074 19.5427 45.0911 23.3608L41.9602 26.4916C41.3845 27.0714 40.9383 27.7672 40.6513 28.532C40.2046 28.048 39.6917 27.6296 39.1278 27.2893L35.1772 24.9239C36.216 22.8139 36.3344 20.3681 35.5044 18.1675C34.5114 15.7228 32.7025 13.6977 30.3852 12.4363C25.8005 9.79124 11.2934 10.0013 9.65836 10.0347C9.25242 10.0432 8.88046 10.2628 8.67778 10.6144C8.47453 10.9654 8.47 11.398 8.66589 11.7535C9.45794 13.1887 16.5258 25.857 21.1094 28.5032C22.9131 29.5789 24.9671 30.1643 27.067 30.2005C27.5913 30.2011 28.115 30.158 28.6324 30.072C30.7442 29.7244 32.6459 28.5892 33.9543 26.8947L37.9383 29.2777C39.0349 29.9418 39.8213 31.0169 40.1214 32.2636C36.1985 32.9039 33.3145 36.2889 33.306 40.2639V40.3448C30.9757 40.0131 28.616 40.7077 26.8371 42.2488C25.0583 43.7899 24.0341 46.0262 24.0302 48.3802H23.6707C21.0409 48.3819 18.4173 48.6299 15.834 49.1213C14.2272 49.4372 12.6856 50.0243 11.2759 50.8566V47.2208C11.2759 46.5804 10.7567 46.0613 10.1164 46.0613H3.15948C2.51916 46.0613 2 46.5804 2 47.2208V70.4104C2 71.0507 2.51916 71.5699 3.15948 71.5699H10.1164C10.7567 71.5699 11.2759 71.0507 11.2759 70.4104V66.6998C12.7699 67.6295 14.4197 68.28 16.1459 68.6214C18.3703 69.0409 20.6298 69.2515 22.8939 69.2509H39.5326C41.6675 69.2486 43.7929 68.9673 45.8554 68.4147L68.566 61.7143C71.039 61.0496 72.5053 58.5059 71.8412 56.0329ZM48.3204 11.9307C50.7549 9.4957 59.7375 6.704 64.7394 5.35203C63.3886 10.3489 60.5912 19.3388 58.1607 21.771C55.5451 24.3844 51.6386 25.733 48.3883 23.3421L51.83 19.901L54.3613 21.167C54.9336 21.4551 55.6317 21.2247 55.9199 20.6518C56.2081 20.0788 55.9776 19.3807 55.4047 19.0926L53.5636 18.1731L55.9289 15.7987L58.467 17.0742C59.0394 17.3624 59.7375 17.1314 60.0256 16.559C60.3138 15.9861 60.0834 15.288 59.5104 14.9998L57.6551 14.0748L60.6178 11.1109C60.919 10.8199 61.0402 10.3885 60.9337 9.98316C60.8279 9.5778 60.5114 9.26132 60.1055 9.15545C59.7001 9.04901 59.2692 9.17017 58.9782 9.47136L56.0167 12.4363L55.0973 10.5929C54.8108 10.02 54.1139 9.78784 53.5415 10.0743C52.9685 10.3608 52.7364 11.0577 53.0229 11.6301L54.2928 14.1625L51.9217 16.5336L51.0023 14.6924C50.7152 14.12 50.0189 13.8879 49.4459 14.1744C48.873 14.4609 48.6414 15.1572 48.9279 15.7302L50.1938 18.2615L46.7527 21.7025C44.3568 18.4539 45.7127 14.5452 48.3204 11.9307ZM28.2463 27.7842C26.1646 28.0565 24.0534 27.6007 22.2689 26.495C19.2937 24.7779 14.2685 16.8212 11.6631 12.3378C16.8462 12.3502 26.2506 12.7284 29.2257 14.4456C32.5004 16.3365 34.8584 19.8733 33.1798 23.7294L29.0157 21.2411L29.6238 18.2694C29.7347 17.65 29.3311 17.055 28.7139 16.9287C28.0974 16.803 27.4928 17.192 27.3523 17.8057L26.9068 19.9797L24.0081 18.2501L24.5969 15.3707C24.7084 14.7513 24.3047 14.1563 23.6876 14.03C23.0711 13.9043 22.4664 14.2933 22.3255 14.907L21.8992 16.9944L18.3047 14.8419C17.7549 14.5135 17.0427 14.6924 16.7138 15.2422C16.3848 15.7919 16.5643 16.5041 17.114 16.833L20.708 18.9816L19.2196 20.3019C18.7395 20.7271 18.6942 21.4608 19.1193 21.9409C19.544 22.4215 20.2777 22.4663 20.7584 22.0411L22.7954 20.2351L25.659 21.9477L24.2413 23.2057C23.7607 23.6303 23.7159 24.3635 24.1406 24.8436C24.5646 25.3242 25.2983 25.3695 25.7784 24.9449L27.7498 23.2057L31.9461 25.716C30.995 26.82 29.6843 27.5526 28.2463 27.7842ZM32.1465 42.5828C32.861 42.5772 33.5698 42.7102 34.2334 42.9746C34.637 43.1377 35.0985 43.0612 35.4274 42.7759C35.7569 42.4911 35.8984 42.0456 35.7943 41.6226C35.6833 41.1782 35.6267 40.7219 35.625 40.2639C35.6238 37.2253 37.9711 34.7025 41.0017 34.4846C44.0324 34.2672 46.7159 36.4282 47.149 39.4362C47.1949 39.7707 47.3851 40.0691 47.6688 40.2525C47.953 40.436 48.3034 40.4864 48.6273 40.3901C48.9234 40.3046 49.2308 40.2622 49.5388 40.2639C51.4597 40.2639 53.0172 41.8214 53.0172 43.7423C53.0183 44.407 52.8253 45.0581 52.4618 45.6146C52.2552 45.9328 52.2172 46.3313 52.3593 46.6823C52.5014 47.0334 52.8066 47.2927 53.1763 47.377C55.7919 47.9981 57.6433 50.3295 57.6551 53.0182C57.6597 53.8849 57.4666 54.7415 57.0907 55.5228L51.3941 57.2677C51.1098 55.456 49.7788 53.9846 48.0045 53.5215L42.9074 52.1599L33.0275 49.2612C32.3322 49.0585 31.6211 48.9028 30.9084 48.7698C30.957 48.6452 30.9837 48.5139 30.9871 48.3802C30.9871 47.7399 31.5062 47.2208 32.1465 47.2208C32.2649 47.2162 32.3826 47.2343 32.4942 47.274C33.0869 47.5089 33.7578 47.2219 33.9967 46.6308C34.2356 46.0403 33.9531 45.3672 33.3638 45.1243C32.9765 44.972 32.5632 44.8961 32.1465 44.9018C30.2256 44.9018 28.6681 46.4593 28.6681 48.3802C28.6681 48.4102 28.6834 48.4357 28.6856 48.4657C28.0708 48.4136 27.4543 48.3802 26.836 48.3802H26.3491C26.3531 45.1798 28.9461 42.5868 32.1465 42.5828ZM8.95689 69.2509H4.31896V48.3802H8.95689V69.2509ZM67.9365 59.4774L45.2292 66.1829C43.3705 66.6777 41.4558 66.9297 39.5326 66.932H22.8939C20.7765 66.9308 18.6636 66.7315 16.583 66.3369C15.0923 66.0425 13.6696 65.4741 12.3867 64.6605L11.2759 63.9647V53.6104L11.4021 53.5203C12.8537 52.4696 14.5148 51.7449 16.2722 51.395C18.7111 50.9325 21.1881 50.6998 23.6707 50.6992H26.836C28.7111 50.6986 30.5766 50.9642 32.3775 51.4873L42.2829 54.3934L47.4044 55.7612C48.6335 56.0822 49.3706 57.3379 49.0519 58.5676V58.5835L49.0451 58.5976V58.6078C48.7682 59.6189 47.8505 60.321 46.8025 60.3227C46.6021 60.3238 46.4023 60.2983 46.2087 60.2462L32.4353 56.5589C32.031 56.4389 31.5934 56.5476 31.2922 56.8431C30.9916 57.1386 30.875 57.574 30.9876 57.9805C31.1003 58.387 31.4247 58.7001 31.8346 58.798L45.6102 62.4865C45.9992 62.5907 46.4 62.6428 46.8025 62.6416C48.6692 62.6348 50.3506 61.5116 51.0713 59.7894L66.7617 54.9889C68.0022 54.6634 69.2726 55.4022 69.6038 56.6416C69.6553 56.8374 69.6808 57.0396 69.6791 57.2422C69.6717 58.2958 68.9567 59.2136 67.9365 59.4774Z" fill="#716CE3"/>
<path d="M39.1662 41.9544C39.5223 41.9544 39.8586 41.7903 40.0789 41.51C40.2985 41.2298 40.3772 40.8635 40.2917 40.5176C40.2719 40.4343 40.2623 40.3494 40.2629 40.2639C40.2629 39.6236 40.782 39.1044 41.4224 39.1044C41.9868 39.0999 42.4692 39.5104 42.5552 40.068C42.5937 40.3743 42.7539 40.6517 43.0002 40.838C43.2459 41.0248 43.5568 41.1041 43.8619 41.0582C44.4949 40.9699 44.9376 40.3862 44.851 39.7527C44.5894 37.9483 42.977 36.6541 41.1591 36.7883C39.3412 36.923 37.9371 38.4409 37.9439 40.2639C37.9422 40.5374 37.975 40.8103 38.0413 41.0752C38.1704 41.5915 38.6341 41.9544 39.1662 41.9544Z" fill="#716CE3"/>
<path d="M51.2692 50.5102C51.1995 50.8102 51.2527 51.1256 51.4164 51.3866C51.58 51.6476 51.8404 51.8333 52.141 51.9018C52.6534 52.0303 53.014 52.4894 53.0174 53.0182C53.0174 53.6585 53.5366 54.1777 54.1769 54.1777C54.8172 54.1777 55.3364 53.6585 55.3364 53.0182C55.3307 51.4081 54.2233 50.0108 52.6568 49.6383C52.0329 49.4962 51.4118 49.8863 51.2692 50.5102Z" fill="#716CE3"/>
<path d="M43.5232 45.5801C41.8621 45.1305 40.1229 45.9707 39.4418 47.5514C39.1932 48.1413 39.4701 48.8219 40.0606 49.0704C40.6505 49.3195 41.331 49.0427 41.5802 48.4522C41.8049 47.9336 42.379 47.6612 42.9225 47.8152C43.2203 47.8951 43.4739 48.0904 43.6274 48.3576C43.7808 48.6248 43.8221 48.9419 43.7412 49.2391C43.5753 49.8579 43.9421 50.4937 44.5609 50.6596C44.6595 50.6856 44.7608 50.6992 44.8621 50.6992C45.387 50.6987 45.8455 50.3465 45.9814 49.8398C46.4751 47.9851 45.3762 46.0805 43.5232 45.5801Z" fill="#716CE3"/>
<path d="M48.3792 43.7424C49.0195 43.7424 49.5387 44.2615 49.5387 44.9018C49.5387 45.5422 50.0578 46.0613 50.6982 46.0613C51.3385 46.0613 51.8576 45.5422 51.8576 44.9018C51.8576 42.9809 50.3002 41.4234 48.3792 41.4234C47.7389 41.4234 47.2197 41.9426 47.2197 42.5829C47.2197 43.2232 47.7389 43.7424 48.3792 43.7424Z" fill="#716CE3"/>
</svg>
