<svg width="75" height="75" viewBox="0 0 75 75" fill="none" xmlns="http://www.w3.org/2000/svg">
<path d="M71.4844 8.20312H3.51562C3.20483 8.20313 2.90676 8.32659 2.68699 8.54636C2.46722 8.76613 2.34375 9.0642 2.34375 9.375V65.625C2.34375 65.9358 2.46722 66.2339 2.68699 66.4536C2.90676 66.6734 3.20483 66.7969 3.51562 66.7969H71.4844C71.7952 66.7969 72.0932 66.6734 72.313 66.4536C72.5328 66.2339 72.6562 65.9358 72.6562 65.625V9.375C72.6562 9.0642 72.5328 8.76613 72.313 8.54636C72.0932 8.32659 71.7952 8.20313 71.4844 8.20312V8.20312ZM70.3125 64.4531H4.6875V10.5469H70.3125V64.4531Z" fill="#716CE3"/>
<path d="M8.20312 18.75V56.25C8.20313 56.5608 8.32659 56.8589 8.54636 57.0786C8.76613 57.2984 9.0642 57.4219 9.375 57.4219C9.99638 57.4226 10.5921 57.6697 11.0315 58.1091C11.4709 58.5485 11.718 59.1442 11.7188 59.7656C11.7188 60.0764 11.8422 60.3745 12.062 60.5943C12.2818 60.814 12.5798 60.9375 12.8906 60.9375H62.1094C62.4202 60.9375 62.7182 60.814 62.938 60.5943C63.1578 60.3745 63.2812 60.0764 63.2812 59.7656C63.282 59.1442 63.5291 58.5485 63.9685 58.1091C64.4079 57.6697 65.0036 57.4226 65.625 57.4219C65.9358 57.4219 66.2339 57.2984 66.4536 57.0786C66.6734 56.8589 66.7969 56.5608 66.7969 56.25V18.75C66.7969 18.4392 66.6734 18.1411 66.4536 17.9214C66.2339 17.7016 65.9358 17.5781 65.625 17.5781C65.0036 17.5774 64.4079 17.3303 63.9685 16.8909C63.5291 16.4515 63.282 15.8558 63.2812 15.2344C63.2812 14.9236 63.1578 14.6255 62.938 14.4057C62.7182 14.186 62.4202 14.0625 62.1094 14.0625H12.8906C12.5798 14.0625 12.2818 14.186 12.062 14.4057C11.8422 14.6255 11.7188 14.9236 11.7188 15.2344C11.718 15.8558 11.4709 16.4515 11.0315 16.8909C10.5921 17.3303 9.99638 17.5774 9.375 17.5781C9.0642 17.5781 8.76613 17.7016 8.54636 17.9214C8.32659 18.1411 8.20313 18.4392 8.20312 18.75V18.75ZM10.5469 19.7735C11.357 19.5626 12.0961 19.1393 12.688 18.5474C13.2799 17.9554 13.7032 17.2163 13.9142 16.4062H61.0858C61.2968 17.2163 61.7201 17.9554 62.312 18.5474C62.9039 19.1393 63.643 19.5626 64.4531 19.7735V55.2265C63.643 55.4374 62.9039 55.8607 62.312 56.4526C61.7201 57.0446 61.2968 57.7837 61.0858 58.5938H13.9142C13.7032 57.7837 13.2799 57.0446 12.688 56.4526C12.0961 55.8607 11.357 55.4374 10.5469 55.2265V19.7735Z" fill="#716CE3"/>
<path d="M8.20312 15.2344C8.85033 15.2344 9.375 14.7097 9.375 14.0625C9.375 13.4153 8.85033 12.8906 8.20312 12.8906C7.55592 12.8906 7.03125 13.4153 7.03125 14.0625C7.03125 14.7097 7.55592 15.2344 8.20312 15.2344Z" fill="#716CE3"/>
<path d="M66.7969 15.2344C67.4441 15.2344 67.9688 14.7097 67.9688 14.0625C67.9688 13.4153 67.4441 12.8906 66.7969 12.8906C66.1497 12.8906 65.625 13.4153 65.625 14.0625C65.625 14.7097 66.1497 15.2344 66.7969 15.2344Z" fill="#716CE3"/>
<path d="M8.20312 62.1094C8.85033 62.1094 9.375 61.5847 9.375 60.9375C9.375 60.2903 8.85033 59.7656 8.20312 59.7656C7.55592 59.7656 7.03125 60.2903 7.03125 60.9375C7.03125 61.5847 7.55592 62.1094 8.20312 62.1094Z" fill="#716CE3"/>
<path d="M66.7969 62.1094C67.4441 62.1094 67.9688 61.5847 67.9688 60.9375C67.9688 60.2903 67.4441 59.7656 66.7969 59.7656C66.1497 59.7656 65.625 60.2903 65.625 60.9375C65.625 61.5847 66.1497 62.1094 66.7969 62.1094Z" fill="#716CE3"/>
<path d="M17.7168 31.0216C17.8169 31.2087 17.9658 31.365 18.1478 31.474C18.3298 31.583 18.5379 31.6406 18.75 31.6406H30.7739C31.5283 32.7257 32.5341 33.6122 33.7053 34.2243C34.8765 34.8365 36.1784 35.1562 37.5 35.1562C38.8216 35.1562 40.1235 34.8365 41.2947 34.2243C42.466 33.6122 43.4717 32.7257 44.2261 31.6406H56.25C56.4621 31.6406 56.6702 31.583 56.8522 31.474C57.0341 31.365 57.1831 31.2087 57.2832 31.0217C57.3832 30.8347 57.4307 30.624 57.4205 30.4122C57.4102 30.2003 57.3427 29.9952 57.225 29.8187L55.3147 26.9531L57.225 24.0875C57.3427 23.911 57.4102 23.7059 57.4205 23.4941C57.4307 23.2822 57.3832 23.0716 57.2832 22.8846C57.1831 22.6976 57.0341 22.5412 56.8522 22.4322C56.6702 22.3232 56.4621 22.2656 56.25 22.2656H44.2261C43.4717 21.1805 42.466 20.2941 41.2947 19.6819C40.1235 19.0697 38.8216 18.75 37.5 18.75C36.1784 18.75 34.8765 19.0697 33.7053 19.6819C32.5341 20.2941 31.5283 21.1805 30.7739 22.2656H18.75C18.5379 22.2656 18.3298 22.3232 18.1478 22.4322C17.9659 22.5412 17.8169 22.6976 17.7168 22.8846C17.6168 23.0716 17.5693 23.2822 17.5795 23.4941C17.5898 23.7059 17.6573 23.911 17.775 24.0875L19.6853 26.9531L17.775 29.8187C17.6573 29.9952 17.5897 30.2003 17.5795 30.4121C17.5693 30.624 17.6167 30.8347 17.7168 31.0216V31.0216ZM54.0603 24.6094L52.9312 26.3031C52.8029 26.4956 52.7344 26.7218 52.7344 26.9531C52.7344 27.1845 52.8029 27.4107 52.9312 27.6031L54.0603 29.2969H45.3602C45.8175 27.7678 45.8175 26.1384 45.3602 24.6094H54.0603ZM37.5 21.0938C38.6589 21.0938 39.7917 21.4374 40.7553 22.0812C41.7189 22.7251 42.4699 23.6402 42.9134 24.7108C43.3568 25.7815 43.4729 26.9596 43.2468 28.0962C43.0207 29.2328 42.4627 30.2769 41.6432 31.0963C40.8238 31.9158 39.7797 32.4738 38.6431 32.6999C37.5065 32.926 36.3284 32.81 35.2577 32.3665C34.1871 31.923 33.2719 31.172 32.6281 30.2084C31.9843 29.2448 31.6406 28.112 31.6406 26.9531C31.6424 25.3997 32.2603 23.9103 33.3588 22.8119C34.4572 21.7134 35.9465 21.0955 37.5 21.0938V21.0938ZM22.0688 26.3031L20.9397 24.6094H29.6399C29.1826 26.1384 29.1826 27.7678 29.6399 29.2969H20.9397L22.0688 27.6031C22.1971 27.4107 22.2656 27.1845 22.2656 26.9531C22.2656 26.7218 22.1971 26.4956 22.0688 26.3031V26.3031Z" fill="#716CE3"/>
<path d="M38.6719 39.8438H50.3906V42.1875H38.6719V39.8438Z" fill="#716CE3"/>
<path d="M30.4688 39.8438H36.3281V42.1875H30.4688V39.8438Z" fill="#716CE3"/>
<path d="M24.6094 39.8438H28.125V42.1875H24.6094V39.8438Z" fill="#716CE3"/>
<path d="M12.8906 48.0469H17.5781V50.3906H12.8906V48.0469Z" fill="#716CE3"/>
<path d="M19.9219 48.0469H29.2969V50.3906H19.9219V48.0469Z" fill="#716CE3"/>
<path d="M17.5781 52.7344H24.6094V55.0781H17.5781V52.7344Z" fill="#716CE3"/>
<path d="M57.4219 48.0469H62.1094V50.3906H57.4219V48.0469Z" fill="#716CE3"/>
<path d="M45.7031 48.0469H55.0781V50.3906H45.7031V48.0469Z" fill="#716CE3"/>
<path d="M50.3906 52.7344H57.4219V55.0781H50.3906V52.7344Z" fill="#716CE3"/>
</svg>
