<svg width="70" height="70" viewBox="0 0 70 70" fill="none" xmlns="http://www.w3.org/2000/svg">
<path d="M49.1466 0H20.8534C9.35478 0 0 9.35478 0 20.8534V49.1466C0 60.6452 9.35478 70 20.8534 70H49.1466C60.6452 70 70 60.6452 70 49.1466V20.8534C69.9999 9.35478 60.6451 0 49.1466 0ZM62.958 49.1466C62.958 56.7744 56.7744 62.958 49.1466 62.958H20.8534C13.2256 62.958 7.042 56.7744 7.042 49.1466V20.8534C7.042 13.2255 13.2256 7.042 20.8534 7.042H49.1466C56.7744 7.042 62.958 13.2255 62.958 20.8534V49.1466Z" fill="white"/>
<path d="M35 16.8958C25.0172 16.8958 16.8955 25.0174 16.8955 35.0001C16.8955 44.9828 25.0172 53.1046 35 53.1046C44.9828 53.1046 53.1045 44.9829 53.1045 35.0001C53.1045 25.0173 44.9828 16.8958 35 16.8958ZM35 46.0627C28.8903 46.0627 23.9375 41.1099 23.9375 35.0002C23.9375 28.8905 28.8904 23.9377 35 23.9377C41.1097 23.9377 46.0625 28.8905 46.0625 35.0002C46.0625 41.1098 41.1096 46.0627 35 46.0627Z" fill="white"/>
<path d="M53.1395 21.3695C55.5354 21.3695 57.4777 19.4273 57.4777 17.0313C57.4777 14.6354 55.5354 12.6931 53.1395 12.6931C50.7436 12.6931 48.8013 14.6354 48.8013 17.0313C48.8013 19.4273 50.7436 21.3695 53.1395 21.3695Z" fill="white"/>
</svg>
