<svg width="70" height="70" viewBox="0 0 70 70" fill="none" xmlns="http://www.w3.org/2000/svg">
<path fill-rule="evenodd" clip-rule="evenodd" d="M15 0C6.71573 0 0 6.71573 0 15V55C0 63.2843 6.71573 70 15 70H55C63.2843 70 70 63.2843 70 55V15C70 6.71573 63.2843 0 55 0H15ZM36.4887 49.1888H33.7368C33.7368 49.1888 27.6649 49.5544 22.3181 43.9875C16.4868 37.9156 11.3368 25.8669 11.3368 25.8669C11.3368 25.8669 11.04 25.0769 11.3625 24.695C11.725 24.2656 12.7125 24.2381 12.7125 24.2381L19.2906 24.195C19.2906 24.195 19.9106 24.2988 20.3543 24.6244C20.72 24.8931 20.9249 25.3956 20.9249 25.3956C20.9249 25.3956 21.9881 28.0844 23.3962 30.5169C26.1443 35.2656 27.4243 36.3044 28.3575 35.7956C29.7168 35.0538 29.3093 29.0825 29.3093 29.0825C29.3093 29.0825 29.3343 26.915 28.625 25.95C28.0756 25.2019 27.0393 24.9838 26.5818 24.9225C26.2118 24.8731 26.8193 24.0138 27.6068 23.6281C28.7906 23.0481 30.8812 23.015 33.3512 23.0406C35.2756 23.06 35.8293 23.18 36.5818 23.3619C38.3277 23.7834 38.2732 25.1342 38.1558 28.0486C38.1207 28.9194 38.0799 29.9299 38.0799 31.0969C38.0799 31.3594 38.0723 31.6393 38.0644 31.9272C38.0236 33.4199 37.9769 35.1288 38.9593 35.7638C39.4631 36.0888 40.6956 35.8125 43.7781 30.5781C45.2393 28.0975 46.3349 25.1806 46.3349 25.1806C46.3349 25.1806 46.5743 24.6606 46.9462 24.4375C47.3268 24.21 47.84 24.28 47.84 24.28L54.7625 24.2369C54.7625 24.2369 56.8425 23.9888 57.1793 24.9275C57.5325 25.9131 56.4018 28.2144 53.5737 31.9838C50.8879 35.5635 49.5828 36.8792 49.7055 38.0446C49.795 38.8942 50.6433 39.6638 52.2687 41.1725C55.6762 44.3354 56.5844 45.9961 56.8002 46.3908C56.8177 46.4228 56.8306 46.4464 56.84 46.4619C58.365 48.9906 55.1487 49.1888 55.1487 49.1888L49.0006 49.2744C49.0006 49.2744 47.6793 49.5363 45.9406 48.3419C45.0313 47.7178 44.1423 46.6986 43.2953 45.7276C42.0005 44.2432 40.8037 42.8712 39.7824 43.195C38.0687 43.7388 38.1224 47.4313 38.1224 47.4313C38.1224 47.4313 38.1349 48.22 37.7443 48.64C37.32 49.0975 36.4887 49.1888 36.4887 49.1888Z" fill="white"/>
</svg>
